<svg viewBox="0 0 764.8 186.9" xmlns="http://www.w3.org/2000/svg" xmlns:xlink="http://www.w3.org/1999/xlink" id="Calque_2_00000127033159869923269700000000144830278011682445_" xml:space="preserve" overflow="hidden"><g id="LOGO_INVIVOO_-_BEYOND_TECH"><g id="INVIVOO"><radialGradient cx="694.631" cy="627.961" r="75.03" fx="642.431" fy="627.961" gradientUnits="userSpaceOnUse" id="O-3_00000114033035197616942650000001573605212646203022_" gradientTransform="matrix(0.766 0.6428 0.7199 -0.858 -441.233 124.371)"><stop offset="0.46" stop-color="#535353"/><stop offset="0.57" stop-color="#535353" stop-opacity="0.93"/><stop offset="0.7" stop-color="#535353" stop-opacity="0.74"/><stop offset="0.84" stop-color="#535353" stop-opacity="0.43"/><stop offset="1" stop-color="#535353" stop-opacity="0"/></radialGradient><g id="O_2"><path d="M649.3 22C662.1 22.3 674.9 24.2 687.2 27.7 667.4 33.5 655.2 53.8 659.7 74.3 664.5 95.6 685.6 108.9 706.9 104.2 728.2 99.4 741.5 78.3 736.8 57 736.7 56.6 736.6 56.2 736.5 55.8 746 65 753.9 75.8 760 87.6 752.7 108.1 735.4 124.4 712.6 129.6 677.3 137.5 642.2 115.3 634.3 80 629.5 58.5 635.8 37.2 649.3 22L649.3 22Z" id="O" fill="#535353" fill-rule="evenodd" clip-rule="evenodd"/><path d="M763.2 51.2C755.3 15.9 720.2-6.3 684.9 1.6 675.2 3.8 666.5 8 659.1 13.7 659.7 13.7 661.2 13.9 661.2 13.9 694.7 16.9 728 30.8 750.6 56.2 755.7 62 760.2 68.2 764.2 74.9 764.3 74.4 764.4 73.2 764.4 73.2 765.2 66.1 764.9 58.6 763.2 51.2Z" fill="#4E57AA" fill-rule="evenodd" clip-rule="evenodd"/></g><path d="M575 31.4C593.9 42.3 600.3 66.5 589.5 85.3 578.6 104.2 554.4 110.6 535.6 99.7 516.8 88.8 510.2 64.6 521.1 45.8 532 27 556.2 20.5 575 31.4ZM588.1 8.8C619.4 26.9 630.2 67 612.1 98.4 594 129.8 553.9 140.5 522.5 122.4 491.1 104.3 480.4 64.2 498.5 32.8 516.6 1.5 556.7-9.3 588.1 8.8Z" id="O-2" fill="#393436" fill-rule="evenodd" clip-rule="evenodd"/><path d="M521.1 45.8C510.2 64.7 516.7 88.8 535.6 99.7 554.5 110.6 578.9 104 589.5 85.3 594.2 76.9 599 78 602.9 82 610.7 90 610.3 102.9 602.5 111 582.1 132.2 549.1 137.7 522.5 122.3 491.2 104.2 480.4 64.1 498.5 32.7 516.6 1.4 556.7-9.4 588.1 8.7 589.3 9.4 590.4 10.1 591.6 10.8 591.5 10.9 535.3 19.2 521.1 45.8L521.1 45.8Z" id="O-3" fill="url(#O-3_00000114033035197616942650000001573605212646203022_)" fill-rule="evenodd" clip-rule="evenodd"/><g id="INVIV"><path d="M6.6 0 20.5 0C24.1 0 27 2.9 27 6.6L27 124.6C27 128.2 24.1 131.2 20.5 131.2L6.6 131.2C3 131.2 0 128.3 0 124.6L0 6.6C0 3 3 0 6.6 0ZM158.9 131.1 145.8 131.1C142.2 131.1 139.2 128.2 139.2 124.5L139.5 67.4C139.5 44.7 128.1 26.3 105.5 26.3 82.9 26.3 71.5 44.7 71.5 67.4L71.3 124.5C71.3 128.1 68.4 131.1 64.7 131.1L51.6 131.1C48 131.1 45.1 128.2 45.1 124.5L45.4 60C45.4 60 46.2 0.3 105.5 0.3 164.8 0.3 165.7 60 165.7 60L165.5 124.6C165.5 128.2 162.5 131.1 158.9 131.1ZM302.6 7.9 244 123.2C244 123.2 241.4 131.1 230.9 131.1 220.4 131.1 217.8 123.2 217.8 123.2L167.8 5.6C167.4 2.7 169.3 0.2 172.2 0.2L186.4 0C189.6 0.5 192.8 2.4 194.6 5.1L232 93.6C232 93.6 262.7 33.2 276.9 5.4L278.1 3.1C280.3 1.1 283.4-8.43769e-15 286.3 0.1L298.8 0.2C301.8 0.2 303.7 3 303.1 6.2L302.6 7.9 302.6 7.9ZM348.9 124.6C348.9 128.2 346 131.2 342.4 131.2L328.5 131.2C324.9 131.2 322 128.3 322 124.6L322 6.6C322 3 324.9 0 328.5 0L342.4 0C346 0 348.9 2.9 348.9 6.6L348.9 124.6ZM496.7 7.9 438.2 123.2C438.2 123.2 435.6 131.1 425.2 131.1 414.8 131.1 412.2 123.2 412.2 123.2L362.2 5.6C361.8 2.7 363.7 0.2 366.5 0.2L380.5 0C383.7 0.5 386.9 2.4 388.7 5.1L426.1 93.5C426.1 93.5 456.8 33.1 470.9 5.3L472.1 3C474.3 1 477.4-0.1 480.2-2.66454e-15L492.7 0.1C495.7 0.1 497.6 2.9 497 6.1L496.7 7.9 496.7 7.9Z" id="INVIV-2" fill="#535353" fill-rule="evenodd" clip-rule="evenodd"/><g id="INVIV_SHADOW"><linearGradient x1="71.6" y1="115.365" x2="165.69" y2="115.365" gradientUnits="userSpaceOnUse" id="N_SHADOW_00000033363042590190175590000003523058870749715857_" gradientTransform="matrix(1 0 0 -1 0 188)"><stop offset="0" stop-color="#383335"/><stop offset="0.34" stop-color="#3C383A"/><stop offset="0.8" stop-color="#4A4949"/><stop offset="1" stop-color="#535353"/></linearGradient><linearGradient x1="232.02" y1="133.924" x2="303.129" y2="133.924" gradientUnits="userSpaceOnUse" id="V_SHADOW_00000036242901184864792430000009068553575767813813_" gradientTransform="matrix(1 0 0 -1 0 188)"><stop offset="0" stop-color="#383335"/><stop offset="0.34" stop-color="#3C383A"/><stop offset="0.8" stop-color="#4A4949"/><stop offset="1" stop-color="#535353"/></linearGradient><linearGradient x1="426.15" y1="133.064" x2="497.302" y2="133.064" gradientUnits="userSpaceOnUse" id="V_SHADOW-2_00000078756739198049328590000008049663368737396889_" gradientTransform="matrix(1 0 0 -1 0 188)"><stop offset="0" stop-color="#383335"/><stop offset="0.34" stop-color="#3C383A"/><stop offset="0.8" stop-color="#4A4949"/><stop offset="1" stop-color="#535353"/></linearGradient><path d="M71.6 64.2C72.2 36.4 93.8 14.1 120.3 14.1 138.6 14.1 154.1 24.8 162.1 40.5 165.5 51.3 165.7 60 165.7 60L165.5 124.6C165.5 128.2 162.6 131.2 158.9 131.2L145.8 131.2C142.2 131.2 139.2 128.3 139.2 124.6L139.5 67.5C139.5 44.8 128.1 26.4 105.5 26.4 82.9 26.4 72.6 43 71.6 64.2L71.6 64.2Z" id="N_SHADOW" fill="url(#N_SHADOW_00000033363042590190175590000003523058870749715857_)" fill-rule="evenodd" clip-rule="evenodd"/><path d="M232 93.6C232 93.6 262.7 33.2 276.9 5.4L278.1 3.1C280.3 1.1 283.4-8.43769e-15 286.3 0.1L298.8 0.2C301.8 0.2 303.7 3 303.1 6.2L302.7 8C302.7 8 260.2 91.6 257 98 244 123.2 232 93.6 232 93.6L232 93.6Z" id="V_SHADOW" fill="url(#V_SHADOW_00000036242901184864792430000009068553575767813813_)" fill-rule="evenodd" clip-rule="evenodd"/><path d="M471.1 5.4 472.3 3.1C474.5 1.1 477.6 4.44089e-16 480.5 0.1L493 0.2C496 0.2 497.9 3 497.3 6.2L496.9 8C496.9 8 451.9 96.3 451 98 437.5 124.8 426.7 98.3 426.2 93.6 426.2 93.6 456.9 33.2 471.1 5.4L471.1 5.4Z" id="V_SHADOW-2" fill="url(#V_SHADOW-2_00000078756739198049328590000008049663368737396889_)" fill-rule="evenodd" clip-rule="evenodd"/></g></g></g><g><path d="M12.4 186.9C8.5 186.9 5.4 185.8 3.2 183.8 1 181.8 0 178.7 0 175 0 171.7 0.7 168.7 2 166 3.3 163.3 5.3 161.3 7.8 159.9 10.3 158.5 13.1 157.7 16.3 157.7 19.2 157.7 21.5 158.3 23.4 159.4 25.2 160.5 26.5 162.2 27.2 164.4L23.5 165.5C23 164 22.2 162.8 20.9 162 19.7 161.2 18.1 160.8 16.1 160.8 13.6 160.8 11.4 161.4 9.6 162.5 7.8 163.6 6.3 165.3 5.3 167.4 4.3 169.5 3.8 172 3.8 174.8 3.8 177.6 4.6 179.8 6.1 181.4 7.6 183 9.8 183.7 12.6 183.7 14.4 183.7 16.1 183.4 17.7 182.9 19.3 182.4 20.7 181.6 21.9 180.5L22.9 175.4 14.7 175.4 15.3 172.2 27 172.2 25.1 182.2C23.3 183.8 21.4 185 19.3 185.7 17.2 186.5 14.9 186.9 12.4 186.9L12.4 186.9Z" fill="#B7B7B7"/><path d="M83.4 186.5 78.7 174.7 70.1 174.7 67.9 186.5 64.2 186.5 69.5 158.1 81.4 158.1C84.2 158.1 86.4 158.8 88 160.2 89.6 161.6 90.5 163.4 90.5 165.6 90.5 168.1 89.8 170.1 88.4 171.6 87 173.1 84.9 174 82.2 174.4L87.4 186.5 83.4 186.5 83.4 186.5ZM79.6 171.7C81.9 171.7 83.7 171.2 84.9 170.2 86.1 169.2 86.7 167.8 86.7 165.9 86.7 164.4 86.2 163.2 85.3 162.4 84.3 161.6 82.9 161.2 81 161.2L72.7 161.2 70.7 171.7 79.6 171.7 79.6 171.7Z" fill="#B7B7B7"/><path d="M143.9 157.7C147.5 157.7 150.3 158.8 152.4 160.9 154.5 163 155.5 165.8 155.5 169.4 155.4 173 154.7 176.1 153.3 178.7 151.9 181.3 150 183.3 147.6 184.8 145.2 186.2 142.5 186.9 139.4 186.9 135.7 186.9 132.9 185.8 130.8 183.7 128.7 181.6 127.8 178.7 127.8 174.9 127.8 171.7 128.5 168.7 129.8 166 131.2 163.3 133.1 161.2 135.5 159.8 137.9 158.4 140.9 157.7 143.9 157.7L143.9 157.7ZM143.8 160.8C141.2 160.8 139 161.4 137.2 162.6 135.4 163.8 134 165.6 133.1 168 132.2 170.4 131.7 172.8 131.7 175.2 131.7 178 132.4 180.1 133.8 181.6 135.2 183.1 137.2 183.8 139.8 183.8 142.4 183.8 144.5 183.2 146.3 182.1 148.1 181 149.5 179.2 150.5 176.9 151.5 174.6 152 172.1 152 169.5 152 166.7 151.3 164.6 149.9 163.1 148.3 161.6 146.3 160.8 143.8 160.8L143.8 160.8Z" fill="#B7B7B7"/><path d="M217.9 186.5 213.6 186.5 212.2 168.5C212 164.8 211.9 162.6 211.9 162 210.9 164.7 210 166.9 209.3 168.5L201.2 186.5 196.9 186.5 194.1 158.1 197.9 158.1 199.4 176.1C199.6 178.2 199.7 180.5 199.7 183.1 200.7 180.6 201.6 178.5 202.2 177 202.8 175.5 205.7 169.2 210.8 158.1L214.4 158.1 215.8 175.8C216 177.9 216.1 180.3 216.1 183.1L216.4 182.4C217 180.9 217.5 179.6 217.9 178.7 218.3 177.8 221.4 170.9 227.2 158.1L231.1 158.1 217.9 186.5 217.9 186.5Z" fill="#B7B7B7"/><path d="M324 161.3 319.3 186.5 315.6 186.5 320.3 161.3 310.9 161.3 311.5 158.2 334 158.2 333.4 161.3 324 161.3 324 161.3Z" fill="#B7B7B7"/><path d="M383.1 157.7C386.7 157.7 389.5 158.8 391.6 160.9 393.7 163 394.7 165.8 394.7 169.4 394.6 173 393.9 176.1 392.5 178.7 391.1 181.3 389.2 183.3 386.8 184.8 384.4 186.3 381.7 186.9 378.6 186.9 374.9 186.9 372.1 185.8 370.1 183.7 368.1 181.6 367.1 178.7 367.1 174.9 367.1 171.7 367.8 168.7 369.1 166 370.5 163.3 372.4 161.2 374.8 159.8 377.2 158.4 380.1 157.7 383.1 157.7L383.1 157.7ZM383 160.8C380.4 160.8 378.2 161.4 376.4 162.6 374.6 163.8 373.2 165.6 372.3 168 371.3 170.4 370.9 172.8 370.9 175.2 370.9 178 371.6 180.1 373 181.6 374.4 183.1 376.4 183.8 379 183.8 381.6 183.8 383.7 183.2 385.5 182.1 387.3 181 388.7 179.2 389.7 176.9 390.7 174.6 391.2 172.1 391.2 169.5 391.2 166.7 390.5 164.6 389.1 163.1 387.7 161.6 385.5 160.8 383 160.8L383 160.8Z" fill="#B7B7B7"/><path d="M444.3 186.9C440.4 186.9 437.3 185.8 435.1 183.8 432.9 181.8 431.8 178.8 431.8 175 431.8 171.7 432.5 168.7 433.8 166 435.1 163.3 437.1 161.3 439.6 159.9 442.1 158.5 444.9 157.7 448.1 157.7 451 157.7 453.3 158.3 455.2 159.4 457 160.5 458.3 162.2 459 164.4L455.3 165.5C454.8 164 454 162.8 452.7 162 451.5 161.2 449.9 160.8 447.9 160.8 445.4 160.8 443.2 161.4 441.4 162.5 439.5 163.6 438.1 165.3 437.1 167.4 436.1 169.5 435.6 172 435.6 174.8 435.6 177.6 436.4 179.8 437.9 181.4 439.4 183 441.6 183.7 444.4 183.7 446.2 183.7 447.9 183.4 449.5 182.9 451.1 182.4 452.5 181.6 453.7 180.5L454.7 175.4 446.5 175.4 447.1 172.2 458.7 172.2 456.8 182.2C455 183.8 453.1 185 451 185.7 449 186.5 446.8 186.9 444.3 186.9L444.3 186.9Z" fill="#B7B7B7"/><path d="M496.1 186.5 501.4 158.1 521.7 158.1 521.1 161.2 504.5 161.2 502.8 170.3 518.3 170.3 517.7 173.4 502.2 173.4 500.4 183.3 517.8 183.3 517.2 186.4 496.1 186.5 496.1 186.5Z" fill="#B7B7B7"/><path d="M572 161.3 567.3 186.5 563.6 186.5 568.3 161.3 559 161.3 559.6 158.2 582 158.2 581.4 161.3 572 161.3 572 161.3Z" fill="#B7B7B7"/><path d="M633.5 186.5 636 173.4 621.1 173.4 618.6 186.5 615 186.5 620.3 158.1 624 158.1 621.8 170.1 636.7 170.1 638.9 158.1 642.5 158.1 637.2 186.5 633.5 186.5Z" fill="#B7B7B7"/><path d="M677.7 186.5 683 158.1 703.3 158.1 702.7 161.2 686.1 161.2 684.4 170.3 699.9 170.3 699.3 173.4 683.8 173.4 682 183.3 699.4 183.3 698.8 186.4 677.7 186.5 677.7 186.5Z" fill="#B7B7B7"/><path d="M757.4 186.5 752.7 174.7 744.2 174.7 742 186.5 738.3 186.5 743.6 158.1 755.5 158.1C758.3 158.1 760.5 158.8 762.1 160.2 763.7 161.6 764.6 163.4 764.6 165.6 764.6 168.1 763.9 170.1 762.5 171.6 761.1 173.1 759 174 756.3 174.4L761.5 186.5 757.4 186.5 757.4 186.5ZM753.6 171.7C755.9 171.7 757.7 171.2 758.9 170.2 760.1 169.2 760.7 167.8 760.7 165.9 760.7 164.4 760.2 163.2 759.3 162.4 758.3 161.6 756.9 161.2 755 161.2L746.7 161.2 744.7 171.7 753.6 171.7 753.6 171.7Z" fill="#B7B7B7"/></g></g></svg>